<svg width="50" height="50" viewBox="0 0 50 50" fill="none" xmlns="http://www.w3.org/2000/svg">
<g id="sports_esports_black_24dp 1" clip-path="url(#clip0_1_610)">
<g id="Group">
<g id="Group_2">
<path id="Vector" d="M44.9557 33.5208L42.685 17.5625C42.1017 13.4583 38.5811 10.4166 34.4355 10.4166H15.5615C11.4159 10.4166 7.8953 13.4583 7.312 17.5625L5.04129 33.5208C4.58298 36.7291 7.06201 39.5833 10.291 39.5833C11.7076 39.5833 13.0408 39.0208 14.0408 38.0208L18.7488 33.3333H31.2481L35.9354 38.0208C36.9353 39.0208 38.2894 39.5833 39.6852 39.5833C42.935 39.5833 45.414 36.7291 44.9557 33.5208ZM22.9153 22.9166H18.7488V27.0833H16.6656V22.9166H12.4992V20.8333H16.6656V16.6666H18.7488V20.8333H22.9153V22.9166ZM31.2481 20.8333C30.1024 20.8333 29.1649 19.8958 29.1649 18.75C29.1649 17.6041 30.1024 16.6666 31.2481 16.6666C32.3939 16.6666 33.3314 17.6041 33.3314 18.75C33.3314 19.8958 32.3939 20.8333 31.2481 20.8333ZM35.4146 27.0833C34.2688 27.0833 33.3314 26.1458 33.3314 25C33.3314 23.8541 34.2688 22.9166 35.4146 22.9166C36.5603 22.9166 37.4978 23.8541 37.4978 25C37.4978 26.1458 36.5603 27.0833 35.4146 27.0833Z" fill="#2A7AE4"/>
</g>
</g>
</g>
<defs>
<clipPath id="clip0_1_610">
<rect width="49.9972" height="50" fill="white"/>
</clipPath>
</defs>
</svg>
