<svg width="127" height="20" viewBox="0 0 127 20" fill="none" xmlns="http://www.w3.org/2000/svg">
<g id="Texto">
<g id="AluraGeek">
<path d="M79.0808 17C77.6642 18.4167 76.0143 19.125 74.1311 19.125C72.9645 19.125 71.8645 18.8917 70.8313 18.425C69.8146 17.9583 68.923 17.3167 68.1564 16.5C67.4064 15.6833 66.8065 14.725 66.3565 13.625C65.9232 12.5083 65.7065 11.3083 65.7065 10.025C65.7065 8.80834 65.9232 7.66667 66.3565 6.6C66.8065 5.51667 67.4148 4.575 68.1814 3.775C68.9647 2.95833 69.8813 2.31667 70.9312 1.85C71.9812 1.36667 73.1228 1.125 74.3561 1.125C76.0226 1.125 77.4475 1.475 78.6308 2.175C79.8308 2.875 80.7307 3.81667 81.3307 5L78.7558 6.9C78.3058 6.01667 77.6725 5.34167 76.8559 4.875C76.056 4.40833 75.181 4.175 74.2311 4.175C73.4811 4.175 72.7895 4.33333 72.1562 4.65C71.5395 4.96667 71.0062 5.4 70.5563 5.95C70.123 6.5 69.7813 7.13334 69.5313 7.85C69.298 8.56667 69.1813 9.325 69.1813 10.125C69.1813 10.9583 69.3147 11.7417 69.5813 12.475C69.848 13.1917 70.2146 13.8167 70.6813 14.35C71.1479 14.8833 71.6979 15.3083 72.3312 15.625C72.9811 15.925 73.6811 16.075 74.4311 16.075C76.1476 16.075 77.6975 15.2667 79.0808 13.65V12.4H75.506V9.875H81.9306V19H79.0808V17Z" fill="#464646"/>
<path d="M90.6204 19.25C89.5704 19.25 88.6205 19.075 87.7705 18.725C86.9206 18.3583 86.1956 17.8667 85.5957 17.25C84.9957 16.6333 84.5291 15.9167 84.1957 15.1C83.8791 14.2833 83.7208 13.425 83.7208 12.525C83.7208 11.5917 83.8791 10.7167 84.1957 9.9C84.5124 9.06667 84.9707 8.34167 85.5707 7.725C86.1706 7.09167 86.8956 6.59167 87.7455 6.225C88.6122 5.85833 89.5788 5.675 90.6454 5.675C91.712 5.675 92.6619 5.85833 93.4952 6.225C94.3452 6.59167 95.0618 7.08334 95.6451 7.7C96.2451 8.31667 96.695 9.03334 96.995 9.85C97.3117 10.6667 97.47 11.5167 97.47 12.4C97.47 12.6167 97.4617 12.825 97.445 13.025C97.445 13.225 97.4283 13.3917 97.395 13.525H87.2706C87.3206 14.0417 87.4456 14.5 87.6455 14.9C87.8455 15.3 88.1039 15.6417 88.4205 15.925C88.7372 16.2083 89.0955 16.425 89.4954 16.575C89.8954 16.725 90.3121 16.8 90.7454 16.8C91.412 16.8 92.037 16.6417 92.6203 16.325C93.2202 15.9917 93.6285 15.5583 93.8452 15.025L96.72 15.825C96.2367 16.825 95.4618 17.65 94.3952 18.3C93.3452 18.9333 92.087 19.25 90.6204 19.25ZM94.0202 11.35C93.9369 10.3667 93.5702 9.58334 92.9202 9C92.2869 8.4 91.512 8.1 90.5954 8.1C90.1454 8.1 89.7204 8.18334 89.3205 8.35C88.9371 8.5 88.5955 8.71667 88.2955 9C87.9955 9.28334 87.7455 9.625 87.5456 10.025C87.3622 10.425 87.2539 10.8667 87.2206 11.35H94.0202Z" fill="#464646"/>
<path d="M105.585 19.25C104.535 19.25 103.585 19.075 102.736 18.725C101.886 18.3583 101.161 17.8667 100.561 17.25C99.9607 16.6333 99.494 15.9167 99.1607 15.1C98.8441 14.2833 98.6857 13.425 98.6857 12.525C98.6857 11.5917 98.8441 10.7167 99.1607 9.9C99.4774 9.06667 99.9357 8.34167 100.536 7.725C101.136 7.09167 101.861 6.59167 102.711 6.225C103.577 5.85833 104.544 5.675 105.61 5.675C106.677 5.675 107.627 5.85833 108.46 6.225C109.31 6.59167 110.027 7.08334 110.61 7.7C111.21 8.31667 111.66 9.03334 111.96 9.85C112.277 10.6667 112.435 11.5167 112.435 12.4C112.435 12.6167 112.427 12.825 112.41 13.025C112.41 13.225 112.393 13.3917 112.36 13.525H102.236C102.286 14.0417 102.411 14.5 102.611 14.9C102.811 15.3 103.069 15.6417 103.385 15.925C103.702 16.2083 104.06 16.425 104.46 16.575C104.86 16.725 105.277 16.8 105.71 16.8C106.377 16.8 107.002 16.6417 107.585 16.325C108.185 15.9917 108.594 15.5583 108.81 15.025L111.685 15.825C111.202 16.825 110.427 17.65 109.36 18.3C108.31 18.9333 107.052 19.25 105.585 19.25ZM108.985 11.35C108.902 10.3667 108.535 9.58334 107.885 9C107.252 8.4 106.477 8.1 105.56 8.1C105.11 8.1 104.685 8.18334 104.285 8.35C103.902 8.5 103.56 8.71667 103.26 9C102.961 9.28334 102.711 9.625 102.511 10.025C102.327 10.425 102.219 10.8667 102.186 11.35H108.985Z" fill="#464646"/>
<path d="M123.425 19L119.625 13.325L117.825 15.1V19H114.476V0.75H117.825V11.825L123.075 5.925H126.65L121.775 11.475L127 19H123.425Z" fill="#464646"/>
</g>
<g id="AluraGeek_2">
<path d="M7.77193 1.25H10.8218L17.5714 19H14.0216L12.3717 14.575H6.17202L4.54711 19H0.997314L7.77193 1.25ZM11.7467 12.15L9.29685 5.175L6.74699 12.15H11.7467Z" fill="#2A7AE4"/>
<path d="M19.1682 0.75H22.518V14.8C22.518 15.2833 22.6346 15.6583 22.868 15.925C23.1013 16.1917 23.4346 16.325 23.8679 16.325C24.0679 16.325 24.2845 16.2917 24.5179 16.225C24.7679 16.1583 25.0012 16.075 25.2178 15.975L25.6678 18.525C25.2178 18.7417 24.6929 18.9083 24.0929 19.025C23.4929 19.1417 22.9513 19.2 22.468 19.2C21.418 19.2 20.6014 18.925 20.0181 18.375C19.4515 17.8083 19.1682 17.0083 19.1682 15.975V0.75Z" fill="#2A7AE4"/>
<path d="M31.1271 19.25C29.7771 19.25 28.7522 18.8167 28.0522 17.95C27.3523 17.0833 27.0023 15.8 27.0023 14.1V5.9H30.3521V13.375C30.3521 15.3917 31.0771 16.4 32.527 16.4C33.1769 16.4 33.8019 16.2083 34.4019 15.825C35.0185 15.425 35.5185 14.825 35.9018 14.025V5.9H39.2516V15.15C39.2516 15.5 39.3099 15.75 39.4266 15.9C39.5599 16.05 39.7682 16.1333 40.0516 16.15V19C39.7182 19.0667 39.4349 19.1083 39.2016 19.125C38.985 19.1417 38.785 19.15 38.6016 19.15C38.0017 19.15 37.51 19.0167 37.1267 18.75C36.7601 18.4667 36.5434 18.0833 36.4768 17.6L36.4018 16.55C35.8185 17.45 35.0685 18.125 34.1519 18.575C33.2353 19.025 32.227 19.25 31.1271 19.25Z" fill="#2A7AE4"/>
<path d="M50.3801 8.8C49.3635 8.81667 48.4552 9.01667 47.6552 9.4C46.8553 9.76667 46.2803 10.325 45.9303 11.075V19H42.5805V5.9H45.6553V8.7C45.8887 8.25 46.1636 7.85 46.4803 7.5C46.7969 7.13334 47.1386 6.81667 47.5052 6.55C47.8719 6.28334 48.2385 6.08334 48.6052 5.95C48.9885 5.8 49.3551 5.725 49.7051 5.725C49.8884 5.725 50.0218 5.725 50.1051 5.725C50.2051 5.725 50.2967 5.73334 50.3801 5.75V8.8Z" fill="#2A7AE4"/>
<path d="M55.6518 19.25C55.0186 19.25 54.4269 19.15 53.8769 18.95C53.327 18.7333 52.852 18.4417 52.452 18.075C52.052 17.6917 51.7354 17.25 51.5021 16.75C51.2854 16.25 51.1771 15.7 51.1771 15.1C51.1771 14.4833 51.3104 13.9167 51.5771 13.4C51.8604 12.8667 52.2437 12.4167 52.727 12.05C53.227 11.6833 53.8186 11.4 54.5019 11.2C55.1852 10.9833 55.9352 10.875 56.7518 10.875C57.3351 10.875 57.9017 10.925 58.4517 11.025C59.0183 11.125 59.5183 11.2667 59.9516 11.45V10.7C59.9516 9.83334 59.7016 9.16667 59.2016 8.7C58.7183 8.23334 57.9934 8 57.0268 8C56.3268 8 55.6435 8.125 54.9769 8.375C54.3103 8.625 53.627 8.99167 52.927 9.475L51.9021 7.35C53.5853 6.23334 55.4019 5.675 57.3518 5.675C59.235 5.675 60.6932 6.14167 61.7265 7.075C62.7764 7.99167 63.3014 9.325 63.3014 11.075V15.15C63.3014 15.5 63.3597 15.75 63.4764 15.9C63.6097 16.05 63.8181 16.1333 64.1014 16.15V19C63.5347 19.1167 63.0431 19.175 62.6265 19.175C61.9932 19.175 61.5015 19.0333 61.1515 18.75C60.8182 18.4667 60.6099 18.0917 60.5266 17.625L60.4516 16.9C59.8683 17.6667 59.16 18.25 58.3267 18.65C57.4934 19.05 56.6018 19.25 55.6518 19.25ZM56.6018 16.8C57.1684 16.8 57.7017 16.7 58.2017 16.5C58.7183 16.3 59.1183 16.0333 59.4016 15.7C59.7683 15.4167 59.9516 15.1 59.9516 14.75V13.25C59.5516 13.1 59.1183 12.9833 58.6517 12.9C58.185 12.8 57.7351 12.75 57.3018 12.75C56.4351 12.75 55.7268 12.95 55.1769 13.35C54.6269 13.7333 54.3519 14.225 54.3519 14.825C54.3519 15.3917 54.5686 15.8667 55.0019 16.25C55.4352 16.6167 55.9685 16.8 56.6018 16.8Z" fill="#2A7AE4"/>
</g>
</g>
</svg>
